<?xml version="1.0" standalone="no"?><!DOCTYPE svg PUBLIC "-//W3C//DTD SVG 1.1//EN" "http://www.w3.org/Graphics/SVG/1.1/DTD/svg11.dtd"><svg t="1620269885911" class="icon" viewBox="0 0 1024 1024" version="1.1" xmlns="http://www.w3.org/2000/svg" p-id="5364" xmlns:xlink="http://www.w3.org/1999/xlink" width="200" height="200"><path d="M950.857143 621.714286v109.714285q0 96.571429-73.142857 163.428572v110.857143q0 8-5.142857 13.142857t-13.142858 5.142857h-36.571428q-8 0-13.142857-5.142857t-5.142857-13.142857v-67.428572q-36 12.571429-73.142858 12.571429H292.571429q-37.142857 0-73.142858-12.571429v62.857143q0 9.714286-5.428571 16.285714T201.142857 1024h-36.571428q-7.428571 0-12.857143-6.571429T146.285714 1001.142857v-106.285714q-73.142857-66.857143-73.142857-163.428572v-109.714285h877.714286zM402.285714 384q0 8-5.142857 13.142857t-13.142857 5.142857-13.142857-5.142857-5.142857-13.142857 5.142857-13.142857 13.142857-5.142857 13.142857 5.142857 5.142857 13.142857z m36.571429-36.571429q0 8-5.142857 13.142858t-13.142857 5.142857-13.142858-5.142857-5.142857-13.142858 5.142857-13.142857 13.142858-5.142857 13.142857 5.142857 5.142857 13.142857z m-36.571429-36.571428q0 8-5.142857 13.142857t-13.142857 5.142857-13.142857-5.142857-5.142857-13.142857 5.142857-13.142857 13.142857-5.142857 13.142857 5.142857 5.142857 13.142857z m73.142857 0q0 8-5.142857 13.142857t-13.142857 5.142857-13.142857-5.142857-5.142857-13.142857 5.142857-13.142857 13.142857-5.142857 13.142857 5.142857 5.142857 13.142857z m-36.571428-36.571429q0 8-5.142857 13.142857t-13.142857 5.142858-13.142858-5.142858-5.142857-13.142857 5.142857-13.142857 13.142858-5.142857 13.142857 5.142857 5.142857 13.142857z m-36.571429-36.571428q0 8-5.142857 13.142857t-13.142857 5.142857-13.142857-5.142857-5.142857-13.142857 5.142857-13.142857 13.142857-5.142858 13.142857 5.142858 5.142857 13.142857z m621.714286 292.571428v36.571429q0 8-5.142857 13.142857t-13.142857 5.142857H18.285714q-8 0-13.142857-5.142857t-5.142857-13.142857v-36.571429q0-8 5.142857-13.142857t13.142857-5.142857h54.857143V146.285714q0-60.571429 42.857143-103.428571T219.428571 0q61.714286 0 105.142858 44.571429 26.285714-10.857143 56-6.857143t53.142857 22.285714l12.571428-12.571429q6.285714-6.285714 12.571429 0l24 24q6.285714 6.285714 0 12.571429L303.428571 263.428571q-6.285714 6.285714-12.571428 0l-24-24q-6.285714-6.285714 0-12.571428l12.571428-12.571429q-20.571429-26.285714-23.142857-59.428571T269.714286 93.142857q-21.142857-20-50.285715-20-30.285714 0-51.714285 21.428572T146.285714 146.285714v365.714286h859.428572q8 0 13.142857 5.142857t5.142857 13.142857zM512 274.285714q0 8-5.142857 13.142857t-13.142857 5.142858-13.142857-5.142858-5.142858-13.142857 5.142858-13.142857 13.142857-5.142857 13.142857 5.142857 5.142857 13.142857z m-36.571429-36.571428q0 8-5.142857 13.142857t-13.142857 5.142857-13.142857-5.142857-5.142857-13.142857 5.142857-13.142857 13.142857-5.142858 13.142857 5.142858 5.142857 13.142857z m-36.571428-36.571429q0 8-5.142857 13.142857t-13.142857 5.142857-13.142858-5.142857-5.142857-13.142857 5.142857-13.142857 13.142858-5.142857 13.142857 5.142857 5.142857 13.142857z m109.714286 36.571429q0 8-5.142858 13.142857t-13.142857 5.142857-13.142857-5.142857-5.142857-13.142857 5.142857-13.142857 13.142857-5.142858 13.142857 5.142858 5.142858 13.142857z m-36.571429-36.571429q0 8-5.142857 13.142857t-13.142857 5.142857-13.142857-5.142857-5.142858-13.142857 5.142858-13.142857 13.142857-5.142857 13.142857 5.142857 5.142857 13.142857z m-36.571429-36.571428q0 8-5.142857 13.142857t-13.142857 5.142857-13.142857-5.142857-5.142857-13.142857 5.142857-13.142858 13.142857-5.142857 13.142857 5.142857 5.142857 13.142858z m109.714286 36.571428q0 8-5.142857 13.142857t-13.142857 5.142857-13.142857-5.142857-5.142857-13.142857 5.142857-13.142857 13.142857-5.142857 13.142857 5.142857 5.142857 13.142857z m-36.571428-36.571428q0 8-5.142858 13.142857t-13.142857 5.142857-13.142857-5.142857-5.142857-13.142857 5.142857-13.142858 13.142857-5.142857 13.142857 5.142857 5.142858 13.142858z m73.142857 0q0 8-5.142857 13.142857t-13.142858 5.142857-13.142857-5.142857-5.142857-13.142857 5.142857-13.142858 13.142857-5.142857 13.142858 5.142857 5.142857 13.142858z" p-id="5365"></path></svg>