<?xml version="1.0" standalone="no"?><!DOCTYPE svg PUBLIC "-//W3C//DTD SVG 1.1//EN" "http://www.w3.org/Graphics/SVG/1.1/DTD/svg11.dtd"><svg t="1616214486838" class="icon" viewBox="0 0 1024 1024" version="1.1" xmlns="http://www.w3.org/2000/svg" p-id="1442" xmlns:xlink="http://www.w3.org/1999/xlink" width="200" height="200"><path d="M515.52 722.259c-109.945 0-199.476-89.467-199.476-199.476s89.467-199.475 199.476-199.475 199.475 89.466 199.475 199.475S625.465 722.26 515.52 722.26z m0-339.883c-77.435 0-140.407 62.972-140.407 140.471 0 77.435 62.972 140.408 140.407 140.408s140.407-62.973 140.407-140.408c0-77.499-62.972-140.47-140.407-140.47z m29.054 229.874h-18.687c-49.34 0-89.466-40.126-89.466-89.403 0-49.34 40.125-89.466 89.466-89.466h18.751c16.319 0 29.502 13.183 29.502 29.502s-13.183 29.502-29.502 29.502h-18.75c-16.768 0-30.399 13.631-30.399 30.462 0 16.767 13.631 30.398 30.398 30.398h18.751c16.319 0 29.502 13.184 29.502 29.503s-13.247 29.502-29.566 29.502z m-29.054 411.686c-4.16 0-8.32-0.896-12.223-2.688L302.22 929.606c-137.08-62.46-222.194-181.109-222.194-309.549v-434.66c0-8.832 3.968-17.152 10.751-22.783 6.784-5.632 15.743-7.872 24.383-6.208 26.11 5.12 52.924 7.68 79.739 7.68 88.634 0 175.093-28.67 237.297-78.587l64.764-52.03c10.815-8.703 26.174-8.703 36.926 0L598.65 85.5c62.204 49.98 148.662 78.587 237.297 78.587 26.814 0 53.628-2.56 79.739-7.68 8.64-1.728 17.599 0.576 24.382 6.208 6.784 5.631 10.752 13.951 10.752 22.782v434.661c0 128.44-85.115 247.089-222.195 309.549l-201.075 91.642c-3.712 1.792-7.871 2.688-12.031 2.688zM139.03 219.89v400.167c0 105.082 71.932 203.124 187.637 255.856l188.788 86.075 188.788-86.075C820.013 823.117 891.88 725.075 891.88 620.057V219.89a478.563 478.563 0 0 1-55.868 3.264c-103.29 0-200.692-32.51-274.287-91.642L515.52 94.33l-46.333 37.182c-73.532 59.068-170.934 91.642-274.223 91.642-18.751 0-37.438-1.088-55.933-3.264z" p-id="1443"></path></svg>